<svg xmlns="http://www.w3.org/2000/svg" width="60.665" height="60.713" viewBox="0 0 60.665 60.713">
  <g id="Group_177" data-name="Group 177" transform="translate(-508.379 -1474.372)">
    <g id="Group_85" data-name="Group 85" transform="translate(508.379 1474.372)">
      <path id="Path_32" data-name="Path 32" d="M294.862,1250.341a28.254,28.254,0,1,1-28.254-28.276,28.264,28.264,0,0,1,28.254,28.276m2.079,0a30.333,30.333,0,1,0-30.333,30.357,30.345,30.345,0,0,0,30.333-30.357" transform="translate(-236.276 -1219.985)" fill="currentColor"/>
    </g>
    <g id="Group_86" data-name="Group 86" transform="translate(526.963 1483.172)">
      <path id="Path_33" data-name="Path 33" d="M258.443,1247.046c-1.348.5-1.624-.571-1.624-.571l-1.994-6.594a3.636,3.636,0,0,1-1.457-.441,3.54,3.54,0,0,1-1.427-4.8,3.423,3.423,0,0,1,1.028-1.141l-.474-1.7s-.345-1.309.887-1.479c1.1-.176,1.336.611,1.336.611l.725,1.953a3.588,3.588,0,0,1,1.319.429,3.541,3.541,0,0,1,1.427,4.8,3.442,3.442,0,0,1-1,1.12l1.883,6.2a1.162,1.162,0,0,1-.63,1.62m5.6,3.434-6.494-21.394a4.205,4.205,0,0,0-5.428-3.011,3.833,3.833,0,0,0-3.32,4.788l6.391,22.06,5.2.522Z" transform="translate(-248.7 -1225.868)" fill="currentColor"/>
    </g>
    <g id="Group_87" data-name="Group 87" transform="translate(536.904 1509.504)">
      <path id="Path_34" data-name="Path 34" d="M255.347,1245.455l6.351,3.524-1.638-5.506-2.9,2.332Z" transform="translate(-255.347 -1243.473)" fill="currentColor"/>
    </g>
    <g id="Group_88" data-name="Group 88" transform="translate(535.588 1511.807)">
      <path id="Path_35" data-name="Path 35" d="M254.467,1245.013l1.455,5.47,7.99,4.432-1.609-5.555Z" transform="translate(-254.467 -1245.013)" fill="currentColor"/>
    </g>
    <g id="Group_89" data-name="Group 89" transform="translate(521.287 1521.708)">
      <rect id="Rectangle_109" data-name="Rectangle 109" width="34.848" height="1.372" fill="currentColor"/>
    </g>
  </g>
</svg>
