<svg xmlns="http://www.w3.org/2000/svg" width="60.665" height="60.713" viewBox="0 0 60.665 60.713">
  <g id="Group_179" data-name="Group 179" transform="translate(-351.689 -1474.372)">
    <g id="Group_69" data-name="Group 69" transform="translate(351.689 1474.372)">
      <path id="Path_18" data-name="Path 18" d="M94.586,1351.783a28.254,28.254,0,1,1-28.254-28.276,28.265,28.265,0,0,1,28.254,28.276m2.079,0a30.333,30.333,0,1,0-30.333,30.357,30.345,30.345,0,0,0,30.333-30.357" transform="translate(-36 -1321.427)" fill="currentColor"/>
    </g>
    <g id="Group_70" data-name="Group 70" transform="translate(351.689 1474.372)">
      <path id="Path_19" data-name="Path 19" d="M94.586,1351.783a28.254,28.254,0,1,1-28.254-28.276,28.265,28.265,0,0,1,28.254,28.276m2.079,0a30.333,30.333,0,1,0-30.333,30.357,30.345,30.345,0,0,0,30.333-30.357" transform="translate(-36 -1321.427)" fill="currentColor"/>
    </g>
    <g id="Group_71" data-name="Group 71" transform="translate(388.656 1485.549)">
      <path id="Path_20" data-name="Path 20" d="M68.155,1328.9a6.977,6.977,0,1,0,7.44,6.961,7.22,7.22,0,0,0-7.44-6.961" transform="translate(-60.715 -1328.9)" fill="currentColor"/>
    </g>
    <g id="Group_72" data-name="Group 72" transform="translate(394.645 1478.614)">
      <path id="Path_21" data-name="Path 21" d="M66.17,1329.152a1.408,1.408,0,0,1-1.452-1.358v-2.172a1.455,1.455,0,0,1,2.9,0v2.172a1.407,1.407,0,0,1-1.451,1.358" transform="translate(-64.718 -1324.263)" fill="currentColor"/>
    </g>
    <g id="Group_73" data-name="Group 73" transform="translate(394.645 1501.516)">
      <path id="Path_22" data-name="Path 22" d="M66.17,1339.575a1.408,1.408,0,0,0-1.452,1.358v2.172a1.455,1.455,0,0,0,2.9,0v-2.172a1.407,1.407,0,0,0-1.451-1.358" transform="translate(-64.718 -1339.575)" fill="currentColor"/>
    </g>
    <g id="Group_74" data-name="Group 74" transform="translate(402.477 1482.287)">
      <path id="Path_23" data-name="Path 23" d="M70.381,1330.573a1.3,1.3,0,0,1,0-1.92l1.642-1.536a1.521,1.521,0,0,1,2.052,0,1.3,1.3,0,0,1,0,1.921l-1.642,1.536a1.521,1.521,0,0,1-2.052,0" transform="translate(-69.956 -1326.718)" fill="currentColor"/>
    </g>
    <g id="Group_75" data-name="Group 75" transform="translate(385.17 1498.481)">
      <path id="Path_24" data-name="Path 24" d="M62.5,1337.944a1.521,1.521,0,0,0-2.052,0l-1.642,1.536a1.3,1.3,0,0,0,0,1.92,1.524,1.524,0,0,0,2.052,0l1.642-1.538a1.3,1.3,0,0,0,0-1.919" transform="translate(-58.385 -1337.546)" fill="currentColor"/>
    </g>
    <g id="Group_76" data-name="Group 76" transform="translate(405.723 1491.152)">
      <path id="Path_25" data-name="Path 25" d="M72.125,1334a1.406,1.406,0,0,1,1.452-1.358H75.9a1.361,1.361,0,1,1,0,2.716H73.577A1.406,1.406,0,0,1,72.125,1334" transform="translate(-72.125 -1332.645)" fill="currentColor"/>
    </g>
    <g id="Group_77" data-name="Group 77" transform="translate(381.246 1491.152)">
      <path id="Path_26" data-name="Path 26" d="M60.985,1334a1.407,1.407,0,0,0-1.452-1.358H57.21a1.361,1.361,0,1,0,0,2.716h2.324A1.407,1.407,0,0,0,60.985,1334" transform="translate(-55.761 -1332.645)" fill="currentColor"/>
    </g>
    <g id="Group_78" data-name="Group 78" transform="translate(402.477 1498.482)">
      <path id="Path_27" data-name="Path 27" d="M70.381,1337.943a1.524,1.524,0,0,1,2.052,0l1.642,1.536a1.3,1.3,0,0,1,0,1.92,1.524,1.524,0,0,1-2.052,0l-1.642-1.536a1.3,1.3,0,0,1,0-1.92" transform="translate(-69.956 -1337.546)" fill="currentColor"/>
    </g>
    <g id="Group_79" data-name="Group 79" transform="translate(385.17 1482.287)">
      <path id="Path_28" data-name="Path 28" d="M62.5,1330.573a1.3,1.3,0,0,0,0-1.92l-1.642-1.536a1.521,1.521,0,0,0-2.052,0,1.3,1.3,0,0,0,0,1.921l1.642,1.536a1.521,1.521,0,0,0,2.052,0" transform="translate(-58.385 -1326.718)" fill="currentColor"/>
    </g>
    <g id="Group_80" data-name="Group 80" transform="translate(366.959 1516.104)">
      <rect id="Rectangle_108" data-name="Rectangle 108" width="32.812" height="1.21" fill="currentColor"/>
    </g>
    <g id="Group_81" data-name="Group 81" transform="translate(375.686 1493.356)">
      <path id="Path_29" data-name="Path 29" d="M59.817,1357.473a.789.789,0,0,1-.606-.287l-6.988-8.458a.785.785,0,0,1,1.212-1l6.294,7.619,13.057-20.858a.785.785,0,0,1,1.331.832L60.483,1357.1a.787.787,0,0,1-.615.366A.508.508,0,0,1,59.817,1357.473Z" transform="translate(-52.044 -1334.119)" fill="currentColor"/>
    </g>
    <g id="Group_82" data-name="Group 82" transform="translate(371.445 1501.375)">
      <path id="Path_30" data-name="Path 30" d="M49.208,1339.48l3.747,10.548,5.9-4.875Z" transform="translate(-49.208 -1339.48)" fill="currentColor"/>
    </g>
    <g id="Group_83" data-name="Group 83" transform="translate(353.77 1476.453)">
      <path id="Path_31" data-name="Path 31" d="M37.39,1351.1a28.254,28.254,0,1,0,28.254-28.278A28.264,28.264,0,0,0,37.39,1351.1" transform="translate(-37.39 -1322.818)" fill="none"/>
    </g>
  </g>
</svg>
