<svg xmlns="http://www.w3.org/2000/svg" width="60.665" height="60.713" viewBox="0 0 60.665 60.713">
  <g id="Group_176" data-name="Group 176" transform="translate(-586.545 -1474.372)">
    <g id="Group_91" data-name="Group 91" transform="translate(586.545 1474.372)">
      <path id="Path_36" data-name="Path 36" d="M294.862,1301.062a28.254,28.254,0,1,1-28.254-28.276,28.264,28.264,0,0,1,28.254,28.276m2.079,0a30.333,30.333,0,1,0-30.333,30.357,30.345,30.345,0,0,0,30.333-30.357" transform="translate(-236.276 -1270.706)" fill="currentColor"/>
    </g>
    <g id="Group_92" data-name="Group 92" transform="translate(596.266 1499.284)">
      <rect id="Rectangle_110" data-name="Rectangle 110" width="41.224" height="10.89" fill="currentColor"/>
    </g>
    <g id="Group_93" data-name="Group 93" transform="translate(596.266 1494.401)">
      <path id="Path_37" data-name="Path 37" d="M246.318,1288.21a.725.725,0,0,1-.169-.019.716.716,0,0,1-.531-.554c-.347-1.735-2.818-2.125-2.843-2.13l.212-1.41a5.564,5.564,0,0,1,3.582,2.127,6.612,6.612,0,0,1,4.146-1.8,5.906,5.906,0,0,1,4.447,2.067,7.743,7.743,0,0,1,5.09-1.994,5.411,5.411,0,0,1,3.748,1.97,6.758,6.758,0,0,1,4.367-1.68,5.743,5.743,0,0,1,3.9,1.7,6.489,6.489,0,0,1,4.139-1.8l.066,0a5.2,5.2,0,0,1,3.672,1.723,5.56,5.56,0,0,1,3.851-1.874v1.425c-1.835,0-3.24,1.925-3.253,1.945a.713.713,0,0,1-.559.3.738.738,0,0,1-.577-.263,4.216,4.216,0,0,0-3.145-1.831h-.054a5.6,5.6,0,0,0-3.606,1.85.638.638,0,0,1-.538.245.717.717,0,0,1-.53-.233,4.66,4.66,0,0,0-3.388-1.762c-.018,0-.034,0-.052,0a6.1,6.1,0,0,0-3.862,1.777.744.744,0,0,1-.561.22.716.716,0,0,1-.528-.287,4.36,4.36,0,0,0-3.183-2c-2.371-.121-4.508,2.049-4.529,2.07a.635.635,0,0,1-.534.218.71.71,0,0,1-.522-.248,5.174,5.174,0,0,0-3.835-2.112,5.837,5.837,0,0,0-3.866,2.092A.714.714,0,0,1,246.318,1288.21Z" transform="translate(-242.775 -1284.097)" fill="currentColor"/>
    </g>
    <g id="Group_94" data-name="Group 94" transform="translate(596.266 1510.087)">
      <path id="Path_38" data-name="Path 38" d="M242.775,1299.556l2.354-4.972,2.356,4.972" transform="translate(-242.775 -1294.584)" fill="currentColor"/>
    </g>
    <g id="Group_95" data-name="Group 95" transform="translate(600.322 1510.087)">
      <path id="Path_39" data-name="Path 39" d="M245.487,1299.556l2.354-4.972,2.356,4.972" transform="translate(-245.487 -1294.584)" fill="currentColor"/>
    </g>
    <g id="Group_96" data-name="Group 96" transform="translate(604.379 1510.087)">
      <path id="Path_40" data-name="Path 40" d="M248.2,1299.556l2.354-4.972,2.356,4.972" transform="translate(-248.2 -1294.584)" fill="currentColor"/>
    </g>
    <g id="Group_97" data-name="Group 97" transform="translate(608.438 1510.087)">
      <path id="Path_41" data-name="Path 41" d="M250.913,1299.556l2.354-4.972,2.356,4.972" transform="translate(-250.913 -1294.584)" fill="currentColor"/>
    </g>
    <g id="Group_98" data-name="Group 98" transform="translate(612.494 1510.087)">
      <path id="Path_42" data-name="Path 42" d="M253.625,1299.556l2.354-4.972,2.356,4.972" transform="translate(-253.625 -1294.584)" fill="currentColor"/>
    </g>
    <g id="Group_99" data-name="Group 99" transform="translate(616.551 1510.087)">
      <path id="Path_43" data-name="Path 43" d="M256.337,1299.556l2.354-4.972,2.356,4.972" transform="translate(-256.337 -1294.584)" fill="currentColor"/>
    </g>
    <g id="Group_100" data-name="Group 100" transform="translate(620.609 1510.087)">
      <path id="Path_44" data-name="Path 44" d="M259.05,1299.556l2.354-4.972,2.356,4.972" transform="translate(-259.05 -1294.584)" fill="currentColor"/>
    </g>
    <g id="Group_101" data-name="Group 101" transform="translate(624.666 1510.087)">
      <path id="Path_45" data-name="Path 45" d="M261.763,1299.556l2.354-4.972,2.356,4.972" transform="translate(-261.763 -1294.584)" fill="currentColor"/>
    </g>
    <g id="Group_102" data-name="Group 102" transform="translate(628.723 1510.087)">
      <path id="Path_46" data-name="Path 46" d="M264.475,1299.556l2.354-4.972,2.356,4.972" transform="translate(-264.475 -1294.584)" fill="currentColor"/>
    </g>
    <g id="Group_103" data-name="Group 103" transform="translate(632.779 1510.087)">
      <path id="Path_47" data-name="Path 47" d="M267.188,1299.556l2.354-4.972,2.356,4.972" transform="translate(-267.188 -1294.584)" fill="currentColor"/>
    </g>
  </g>
</svg>
