<svg xmlns="http://www.w3.org/2000/svg" width="60.665" height="60.713" viewBox="0 0 60.665 60.713">
  <g id="Group_180" data-name="Group 180" transform="translate(-273.164 -1474.372)">
    <g id="Group_66" data-name="Group 66" transform="translate(273.164 1474.372)">
      <path id="Path_16" data-name="Path 16" d="M94.586,1301.062a28.254,28.254,0,1,1-28.254-28.276,28.264,28.264,0,0,1,28.254,28.276m2.079,0a30.333,30.333,0,1,0-30.333,30.357,30.345,30.345,0,0,0,30.333-30.357" transform="translate(-36 -1270.706)" fill="currentColor"/>
    </g>
    <g id="Group_67" data-name="Group 67" transform="translate(287.873 1493.738)">
      <path id="Path_17" data-name="Path 17" d="M62.813,1307.788l5.921-14.311H77.07ZM56.8,1293.478h10.32l-5.6,14.284Zm-10.962,0H55.2l4.836,14.285Zm4.845-9.031,3.823,7.389H45.834Zm9.221-.792-4.067,7.333-3.792-7.333Zm6.574,8.181H57.162l4.334-7.8Zm4.5-8.181-3.048,7.529-4.788-7.529Zm6.108,8.181H69.355l2.948-7.272Z" transform="translate(-45.834 -1283.654)" fill="currentColor"/>
    </g>
  </g>
</svg>
