<svg xmlns="http://www.w3.org/2000/svg" width="60.665" height="65.461" viewBox="0 0 60.665 65.461">
  <g id="Group_181" data-name="Group 181" transform="translate(-195 -1474.372)">
    <path id="Path_21" data-name="Path 21" d="M65.276,1326.142a.541.541,0,0,1-.558-.522v-.835a.559.559,0,0,1,1.116,0v.835a.541.541,0,0,1-.558.522" transform="translate(169.535 212.524)" fill="currentColor"/>
    <path id="Path_23" data-name="Path 23" d="M70.119,1328.2a.5.5,0,0,1,0-.738l.631-.591a.585.585,0,0,1,.789,0,.5.5,0,0,1,0,.738l-.631.59a.585.585,0,0,1-.789,0" transform="translate(167.309 211.48)" fill="currentColor"/>
    <path id="Path_28" data-name="Path 28" d="M59.968,1328.2a.5.5,0,0,0,0-.738l-.631-.591a.585.585,0,0,0-.789,0,.5.5,0,0,0,0,.738l.631.59a.585.585,0,0,0,.789,0" transform="translate(172.227 211.48)" fill="currentColor"/>
    <g id="Group_59" data-name="Group 59" transform="translate(195 1474.372)">
      <path id="Path_11" data-name="Path 11" d="M94.586,1250.341a28.254,28.254,0,1,1-28.254-28.276,28.264,28.264,0,0,1,28.254,28.276m2.079,0A30.333,30.333,0,1,0,66.333,1280.7a30.345,30.345,0,0,0,30.333-30.357" transform="translate(-36 -1219.985)" fill="currentColor"/>
    </g>
    <g id="Group_60" data-name="Group 60" transform="translate(211.596 1487.118)">
      <path id="Path_12" data-name="Path 12" d="M65.007,1249.773c-5.971.775-7.86-1.463-9.445-5.729a7.392,7.392,0,0,1,1.113-6.773l6.924-7.939.009-.016,10.673,6.43-3.467,9.176c-1.2,4.049-5.806,4.851-5.806,4.851m6.123-3.947,3.923-10.394-5.745-3.466-.007,0-.007,0-5.754-3.451-7.327,8.348s-3.575,3.5-.381,9.8c0,0,2.085,2.7-.371,6.791s-3.264,5.341-4.456,4.624-3.635-1.665-3.89-1.238,2.3,2.6,4.786,4.1l.007.006.009,0c2.489,1.493,5.6,2.731,5.86,2.306s-1.728-2.14-2.918-2.857-.468-2.019,1.988-6.108,5.817-3.515,5.817-3.515c7.248-.175,8.467-4.937,8.467-4.937" transform="translate(-47.096 -1228.507)" fill="currentColor"/>
    </g>
    <g id="Group_61" data-name="Group 61" transform="translate(220.301 1492.835)">
      <path id="Path_13" data-name="Path 13" d="M62.8,1233.483c-4.106-3.6-8.742,2.38-8.742,2.38s-3.82,6.8,2.51,10.609,10.515-2.779,10.515-2.779a15.14,15.14,0,0,0,1.422-2.852c.745-1.883,3.455-8.868,1.979-6.288-2.474,4.327-6.132.292-7.683-1.069" transform="translate(-52.915 -1232.328)" fill="currentColor"/>
    </g>
    <g id="Group_62" data-name="Group 62" transform="translate(239.268 1492.909)">
      <path id="Path_14" data-name="Path 14" d="M65.6,1232.877s1.086-.434,1.389.6-.616,1.481-.634,2a1.161,1.161,0,0,0,.826,1.135c.461.1,1.4-.2,1.576-1.952a1.9,1.9,0,0,0-3.157-1.783" transform="translate(-65.596 -1232.378)" fill="currentColor"/>
    </g>
    <g id="Group_63" data-name="Group 63" transform="translate(238.742 1490.348)">
      <path id="Path_15" data-name="Path 15" d="M65.447,1233.524a1.151,1.151,0,0,1,.621-1.237c.79-.368.986.362,1.354.323a1.286,1.286,0,0,0,.929-.818c.135-.4.039-1.157-1.2-1.125a2.045,2.045,0,0,0-1.708,2.857" transform="translate(-65.245 -1230.666)" fill="currentColor"/>
    </g>
    <g id="Group_64" data-name="Group 64" transform="translate(207.291 1520.913)">
      <rect id="Rectangle_107" data-name="Rectangle 107" width="36.085" height="1.422" fill="currentColor"/>
    </g>
  </g>
</svg>
