<svg xmlns="http://www.w3.org/2000/svg" width="60.665" height="60.713" viewBox="0 0 60.665 60.713">
  <g id="Group_175" class="deneme" data-name="Group 175" transform="translate(-664.709 -1474.372)">
    <g id="Group_105" data-name="Group 105" transform="translate(664.709 1474.372)">
      <path id="Path_48" data-name="Path 48" d="M294.862,1351.783a28.254,28.254,0,1,1-28.254-28.276,28.265,28.265,0,0,1,28.254,28.276m2.079,0a30.333,30.333,0,1,0-30.333,30.357,30.345,30.345,0,0,0,30.333-30.357" transform="translate(-236.276 -1321.427)" fill="currentColor"/>
    </g>
    <g id="Group_106" data-name="Group 106" transform="translate(674.43 1516.458)">
      <path id="Path_49" data-name="Path 49" d="M283.787,1353.679a5.569,5.569,0,0,1-3.584-2.127,6.616,6.616,0,0,1-4.146,1.8,5.821,5.821,0,0,1-4.447-2.067,7.742,7.742,0,0,1-5.09,1.994,5.407,5.407,0,0,1-3.747-1.97,7.122,7.122,0,0,1-4.3,1.681l-.072,0a5.753,5.753,0,0,1-3.9-1.7,6.31,6.31,0,0,1-4.2,1.8,5.2,5.2,0,0,1-3.672-1.723,5.559,5.559,0,0,1-3.851,1.874v-1.425c1.85,0,3.241-1.927,3.255-1.946a.717.717,0,0,1,.558-.3.678.678,0,0,1,.577.263,4.224,4.224,0,0,0,3.147,1.831.486.486,0,0,0,.052,0,5.6,5.6,0,0,0,3.606-1.85.724.724,0,0,1,.538-.245.711.711,0,0,1,.53.233,4.66,4.66,0,0,0,3.388,1.762h.052a6.1,6.1,0,0,0,3.862-1.777.771.771,0,0,1,.561-.22.71.71,0,0,1,.528.287,4.359,4.359,0,0,0,3.183,2c2.372.121,4.508-2.049,4.53-2.07a.726.726,0,0,1,.534-.218.706.706,0,0,1,.521.248,5.29,5.29,0,0,0,3.827,2.112,5.892,5.892,0,0,0,3.875-2.093.713.713,0,0,1,1.256.305c.347,1.735,2.819,2.125,2.843,2.128Z" transform="translate(-242.774 -1349.565)" fill="currentColor"/>
    </g>
    <g id="Group_107" data-name="Group 107" transform="translate(674.43 1510.692)">
      <path id="Path_50" data-name="Path 50" d="M283.786,1349.825a5.563,5.563,0,0,1-3.582-2.127,6.628,6.628,0,0,1-4.146,1.8,6.316,6.316,0,0,1-4.447-2.069,7.743,7.743,0,0,1-5.09,1.994,5.408,5.408,0,0,1-3.747-1.971,7.2,7.2,0,0,1-4.369,1.68,5.738,5.738,0,0,1-3.9-1.7,6.174,6.174,0,0,1-4.2,1.8,5.21,5.21,0,0,1-3.672-1.726,5.56,5.56,0,0,1-3.851,1.874v-1.426c1.85,0,3.241-1.926,3.255-1.946a.717.717,0,0,1,.558-.3.732.732,0,0,1,.577.263,4.233,4.233,0,0,0,3.147,1.834,5.548,5.548,0,0,0,3.658-1.852.733.733,0,0,1,.538-.245.713.713,0,0,1,.53.235,4.657,4.657,0,0,0,3.388,1.76c.018,0,.036,0,.052,0a6.1,6.1,0,0,0,3.862-1.775.773.773,0,0,1,.561-.222.71.71,0,0,1,.528.289,4.358,4.358,0,0,0,3.183,2c2.372.121,4.508-2.05,4.53-2.07a.808.808,0,0,1,.534-.22.712.712,0,0,1,.521.248,4.992,4.992,0,0,0,3.836,2.112,5.836,5.836,0,0,0,3.865-2.091.713.713,0,0,1,1.258.3c.346,1.723,2.821,2.128,2.846,2.131Z" transform="translate(-242.774 -1345.71)" fill="currentColor"/>
    </g>
    <g id="Group_108" data-name="Group 108" transform="translate(690.031 1486.582)">
      <path id="Path_51" data-name="Path 51" d="M263.225,1337.114l-5.009-7.523-5.011,7.523h3.145l1.865,14.934,1.865-14.934Z" transform="translate(-253.206 -1329.59)" fill="currentColor"/>
    </g>
    <g id="Group_109" data-name="Group 109" transform="translate(677.479 1486.582)">
      <path id="Path_52" data-name="Path 52" d="M254.832,1337.114l-5.009-7.523-5.011,7.523h3.145l1.865,14.934,1.865-14.934Z" transform="translate(-244.813 -1329.59)" fill="currentColor"/>
    </g>
    <g id="Group_110" data-name="Group 110" transform="translate(702.586 1486.582)">
      <path id="Path_53" data-name="Path 53" d="M271.619,1337.114l-5.009-7.523-5.01,7.523h3.145l1.865,14.934,1.865-14.934Z" transform="translate(-261.599 -1329.59)" fill="currentColor"/>
    </g>
  </g>
</svg>
