<svg id="Icon_awesome-instagram" data-name="Icon awesome-instagram" xmlns="http://www.w3.org/2000/svg" width="21.123" height="21.118" viewBox="0 0 21.123 21.118">
  <path id="Icon_awesome-instagram-2" data-name="Icon awesome-instagram" d="M10.558,7.382A5.414,5.414,0,1,0,15.973,12.8,5.406,5.406,0,0,0,10.558,7.382Zm0,8.934a3.52,3.52,0,1,1,3.52-3.52,3.526,3.526,0,0,1-3.52,3.52Zm6.9-9.156A1.263,1.263,0,1,1,16.194,5.9,1.26,1.26,0,0,1,17.457,7.161Zm3.586,1.282a6.25,6.25,0,0,0-1.706-4.425,6.291,6.291,0,0,0-4.425-1.706c-1.744-.1-6.969-.1-8.713,0a6.282,6.282,0,0,0-4.425,1.7A6.27,6.27,0,0,0,.069,8.438c-.1,1.744-.1,6.969,0,8.713a6.25,6.25,0,0,0,1.706,4.425A6.3,6.3,0,0,0,6.2,23.281c1.744.1,6.969.1,8.713,0a6.25,6.25,0,0,0,4.425-1.706,6.291,6.291,0,0,0,1.706-4.425c.1-1.744.1-6.965,0-8.708ZM18.791,19.021a3.564,3.564,0,0,1-2.007,2.007c-1.39.551-4.689.424-6.225.424s-4.839.123-6.225-.424a3.564,3.564,0,0,1-2.007-2.007C1.775,17.631,1.9,14.333,1.9,12.8s-.123-4.839.424-6.225A3.564,3.564,0,0,1,4.334,4.564c1.39-.551,4.689-.424,6.225-.424s4.839-.123,6.225.424a3.564,3.564,0,0,1,2.007,2.007c.551,1.39.424,4.689.424,6.225S19.342,17.636,18.791,19.021Z" transform="translate(0.005 -2.238)" fill="#b0b0b0"/>
</svg>
