<svg id="Icon_awesome-linkedin-in" data-name="Icon awesome-linkedin-in" xmlns="http://www.w3.org/2000/svg" width="21.111" height="21.11" viewBox="0 0 21.111 21.11">
  <path id="Icon_awesome-linkedin-in-2" data-name="Icon awesome-linkedin-in" d="M4.725,21.111H.349V7.017H4.725ZM2.535,5.094A2.547,2.547,0,1,1,5.069,2.535,2.556,2.556,0,0,1,2.535,5.094ZM21.106,21.111H16.739V14.25c0-1.635-.033-3.732-2.276-3.732-2.276,0-2.624,1.777-2.624,3.614v6.979H7.467V7.017h4.2V8.939h.061a4.6,4.6,0,0,1,4.141-2.276c4.429,0,5.244,2.917,5.244,6.705v7.742Z" transform="translate(0 -0.001)" fill="#585858"/>
</svg>
