<svg id="Icon_awesome-pinterest-p" data-name="Icon awesome-pinterest-p" xmlns="http://www.w3.org/2000/svg" width="18.095" height="23.519" viewBox="0 0 18.095 23.519">
  <path id="Icon_awesome-pinterest-p-2" data-name="Icon awesome-pinterest-p" d="M9.613.457C4.778.457,0,3.68,0,8.9c0,3.317,1.866,5.2,3,5.2.467,0,.735-1.3.735-1.668,0-.438-1.117-1.371-1.117-3.195A6.368,6.368,0,0,1,9.231,2.761c3.209,0,5.584,1.824,5.584,5.174,0,2.5-1,7.2-4.255,7.2a2.092,2.092,0,0,1-2.177-2.064c0-1.781,1.244-3.506,1.244-5.344C9.627,4.6,5.2,5.169,5.2,8.939a5.536,5.536,0,0,0,.452,2.389C5,14.127,3.676,18.3,3.676,21.181c0,.891.127,1.767.212,2.658.16.179.08.16.325.071,2.375-3.251,2.29-3.888,3.365-8.143a3.822,3.822,0,0,0,3.266,1.7c5,0,7.252-4.877,7.252-9.274C18.095,3.511,14.052.457,9.613.457Z" transform="translate(0 -0.457)" fill="#b0b0b0"/>
</svg>
